<svg xmlns="http://www.w3.org/2000/svg" width="390" height="178" viewBox="0 0 390 178" role="img" aria-label="lumi"><title>lumi</title><g transform="translate(-414.25 -156.25)"><path d="M 470.00 212.00 L 470.00 280.00 L 538.00 280.00" fill="none" stroke="#2048B0" stroke-width="17.0" stroke-linecap="round" stroke-linejoin="round"/><circle cx="490.00" cy="263.00" r="6.00" fill="#2048B0" opacity="0.35"/><circle cx="504.00" cy="254.00" r="6.00" fill="#2048B0" opacity="0.35"/><circle cx="520.00" cy="238.00" r="14.00" fill="#F08C6E"/></g><g transform="translate(50.162499999999994 -578.25)"><g transform="translate(120 700) scale(0.08955938697318008 -0.08955938697318008)"><path transform="translate(0 0)" d="M68 0V720H168V0Z" fill="#243642"/><path transform="translate(237 0)" d="M253 -12Q194 -12 150.5 12.0Q107 36 83.5 84.0Q60 132 60 205V504H160V216Q160 145 191.0 109.0Q222 73 280 73Q319 73 350.5 92.0Q382 111 400.0 147.0Q418 183 418 235V504H518V0H429L422 86Q399 40 355.0 14.0Q311 -12 253 -12Z" fill="#243642"/><path transform="translate(824 0)" d="M68 0V504H158L165 433Q189 472 229.0 494.0Q269 516 319 516Q357 516 388.0 505.5Q419 495 443.0 474.0Q467 453 482 422Q509 466 554.5 491.0Q600 516 651 516Q712 516 756.0 491.5Q800 467 823.0 418.5Q846 370 846 298V0H747V288Q747 358 718.5 394.0Q690 430 635 430Q598 430 569.0 411.0Q540 392 523.5 356.0Q507 320 507 268V0H407V288Q407 358 378.5 394.0Q350 430 295 430Q260 430 231.0 411.0Q202 392 185.0 356.0Q168 320 168 268V0Z" fill="#243642"/><path transform="translate(1731 0)" d="M68 0V504H168V0Z" fill="#243642"/></g><circle cx="285.64" cy="641.61" r="7.52" fill="#F08C6E"/></g></svg>